<?xml version="1.0" encoding="UTF-8"?>
<svg id="Layer_2" data-name="Layer 2" xmlns="http://www.w3.org/2000/svg" viewBox="0 0 1144.53 163.2">
  <defs>
    <style>
      .cls-1 {
        fill: #001943;
      }

      .cls-2 {
        fill: #21c4ea;
      }

      .cls-3 {
        fill: #0249ac;
      }
    </style>
  </defs>
  <g id="Layer_1-2" data-name="Layer 1">
    <g>
      <g>
        <path class="cls-2" d="M.28,26.94c-.17.14-.28.35-.28.57v80.48c0,.93,1.13,1.4,1.79.74l30.22-30.22c1.15-1.15,1.8-2.71,1.8-4.34V2.22c0-.6-.69-.94-1.16-.57L.28,26.94Z"/>
        <path class="cls-2" d="M162,136.31c.17-.14.28-.35.28-.57V55.26c0-.93-1.13-1.4-1.79-.74l-30.22,30.22c-1.15,1.15-1.8,2.71-1.8,4.34v71.94c0,.6.69.94,1.16.57l32.37-25.29Z"/>
        <path class="cls-3" d="M161.66,27.16c.33.28.35.78.05,1.09l-46.88,46.88c-1.02,1-2.4,1.59-3.84,1.59h-61.2c-1.4,0-2.53-1.13-2.53-2.53v-28.77c0-1.37,1.13-2.51,2.53-2.51l78.68-1.74V.74c0-.63.74-.97,1.22-.57l31.97,26.98Z"/>
        <path class="cls-3" d="M115,89.03v28.79c0,1.38-1.13,2.51-2.51,2.51H33.79v42.12c0,.63-.75.97-1.22.56L.98,135.71c-.33-.28-.34-.78-.04-1.08l46.51-46.51c1.02-1.02,2.4-1.59,3.84-1.59h61.2c1.38,0,2.51,1.13,2.51,2.51Z"/>
      </g>
      <polygon class="cls-1" points="320.32 24.57 320.32 65.46 243.33 65.46 243.33 24.57 217.73 24.57 217.73 138.62 243.33 138.62 243.33 84.07 320.32 84.07 320.32 138.62 346.09 138.62 346.09 24.57 320.32 24.57"/>
      <path class="cls-1" d="M510.93,51.38c-2.31-5.34-5.42-9.99-9.32-13.92-3.89-3.92-8.55-7.04-13.95-9.38-5.41-2.32-11.06-3.5-16.94-3.5h-62.27c-5.88,0-11.53,1.18-16.94,3.5-5.42,2.34-10.06,5.47-13.96,9.38-3.9,3.93-7,8.58-9.31,13.92-2.31,5.36-3.45,10.98-3.45,16.86v26.72c0,7.91,1.95,15.2,5.84,21.92,3.9,6.7,9.2,12,15.92,15.9,6.7,3.9,14,5.84,21.91,5.84h62.27c7.9,0,15.2-1.94,21.91-5.84,6.7-3.9,12.01-9.2,15.9-15.9,3.9-6.72,5.85-14.01,5.85-21.92v-26.72c0-5.88-1.16-11.5-3.45-16.86M488.77,94.96c0,6.9-2.46,12.8-7.35,17.7-4.91,4.91-10.81,7.35-17.7,7.35h-48.28c-6.89,0-12.79-2.45-17.7-7.35-4.91-4.89-7.35-10.79-7.35-17.7v-26.72c0-6.89,2.45-12.77,7.35-17.65,4.91-4.88,10.81-7.32,17.7-7.32h48.28c6.89,0,12.79,2.45,17.7,7.32,4.89,4.88,7.35,10.76,7.35,17.65v26.72Z"/>
      <path class="cls-1" d="M646.96,96.76c5.3-3.69,9.49-8.41,12.57-14.15,3.07-5.76,4.61-11.92,4.61-18.5,0-7.11-1.78-13.69-5.34-19.76-3.55-6.07-8.36-10.88-14.43-14.43-6.07-3.56-12.67-5.34-19.76-5.34h-91.47v114.05h25.61V43.26h58.87c5.71,0,10.64,2.04,14.74,6.13,4.12,4.09,6.18,8.98,6.18,14.71s-2.06,10.65-6.18,14.76c-4.1,4.12-9.03,6.16-14.74,6.16h-46.26v18.61h28.6l32.93,34.99h29.51l-33.09-35.15c6.46-.79,12.35-3.03,17.65-6.72"/>
      <path class="cls-1" d="M823.56,51.38c-2.31-5.34-5.41-9.99-9.31-13.92-3.89-3.92-8.55-7.04-13.95-9.38-5.42-2.32-11.06-3.5-16.94-3.5h-62.29c-5.88,0-11.52,1.18-16.94,3.5-5.4,2.34-10.06,5.47-13.95,9.38-3.9,3.93-7,8.58-9.31,13.92-2.31,5.36-3.47,10.98-3.47,16.86v26.72c0,7.91,1.95,15.2,5.85,21.92,3.9,6.7,9.2,12,15.9,15.9,6.7,3.9,14.01,5.84,21.91,5.84h62.29c7.9,0,15.2-1.94,21.91-5.84,6.7-3.9,12-9.2,15.9-15.9,3.9-6.72,5.85-14.01,5.85-21.92v-26.72c0-5.88-1.16-11.5-3.47-16.86M801.42,94.96c0,6.9-2.46,12.8-7.35,17.7-4.91,4.91-10.81,7.35-17.7,7.35h-48.29c-6.89,0-12.79-2.45-17.68-7.35-4.91-4.89-7.37-10.79-7.37-17.7v-26.72c0-6.89,2.46-12.77,7.37-17.65,4.89-4.88,10.79-7.32,17.68-7.32h48.29c6.89,0,12.79,2.45,17.7,7.32,4.89,4.88,7.35,10.76,7.35,17.65v26.72Z"/>
      <path class="cls-1" d="M980.76,51.34c-2.34-5.39-5.45-10.02-9.33-13.92-3.9-3.9-8.58-7.01-14.01-9.35-5.44-2.32-11.09-3.5-16.97-3.5h-94.65v114.05h94.65c5.88,0,11.53-1.16,16.97-3.5,5.43-2.32,10.11-5.43,14.01-9.33,3.89-3.9,7-8.53,9.33-13.92,2.34-5.39,3.5-11.02,3.5-16.91v-26.72c0-5.88-1.16-11.52-3.5-16.89M958.5,94.96c0,6.9-2.45,12.8-7.32,17.7-4.88,4.91-10.76,7.35-17.65,7.35h-61.96V43.26h61.96c6.89,0,12.77,2.45,17.65,7.32,4.88,4.88,7.32,10.76,7.32,17.65v26.72Z"/>
      <path class="cls-1" d="M1117.24,138.62h27.28l-61.71-114.05h-34.45l-61.72,114.05h27.53l13.88-25.69h75.31l13.88,25.69ZM1038.11,94.33l27.59-51.06,27.6,51.06h-55.19Z"/>
    </g>
  </g>
</svg>