<?xml version="1.0" encoding="UTF-8"?>
<svg id="Ebene_1" xmlns="http://www.w3.org/2000/svg" version="1.1" viewBox="0 0 1366 300">
  <!-- Generator: Adobe Illustrator 29.8.2, SVG Export Plug-In . SVG Version: 2.1.1 Build 3)  -->
  <defs>
    <style>
      .st0 {
        fill: #fff;
      }
    </style>
  </defs>
  <polygon class="st0" points="152.56 65.96 152.56 126.06 39.39 126.06 39.39 65.96 1.76 65.96 1.76 233.6 39.39 233.6 39.39 153.41 152.56 153.41 152.56 233.6 190.43 233.6 190.43 65.96 152.56 65.96"/>
  <path class="st0" d="M432.73,105.36c-3.4-7.85-7.97-14.68-13.7-20.46-5.72-5.76-12.57-10.35-20.5-13.79-7.95-3.41-16.26-5.14-24.9-5.14h-91.53c-8.64,0-16.95,1.73-24.9,5.14-7.97,3.44-14.79,8.04-20.52,13.79-5.73,5.78-10.29,12.61-13.68,20.46-3.4,7.88-5.07,16.14-5.07,24.78v39.27c0,11.63,2.87,22.34,8.58,32.22,5.73,9.85,13.52,17.64,23.4,23.37,9.85,5.73,20.58,8.58,32.2,8.58h91.53c11.61,0,22.34-2.85,32.2-8.58,9.85-5.73,17.65-13.52,23.37-23.37,5.73-9.88,8.6-20.59,8.6-32.22v-39.27c0-8.64-1.71-16.9-5.07-24.78M400.15,169.42c0,10.14-3.62,18.81-10.8,26.02-7.22,7.22-15.89,10.8-26.02,10.8h-70.97c-10.13,0-18.8-3.6-26.02-10.8-7.22-7.19-10.8-15.86-10.8-26.02v-39.27c0-10.13,3.6-18.77,10.8-25.94,7.22-7.17,15.89-10.76,26.02-10.76h70.97c10.13,0,18.8,3.6,26.02,10.76,7.19,7.17,10.8,15.82,10.8,25.94,0,0,0,39.27,0,39.27Z"/>
  <path class="st0" d="M632.67,172.07c7.79-5.42,13.95-12.36,18.48-20.8,4.51-8.47,6.78-17.52,6.78-27.19,0-10.45-2.62-20.12-7.85-29.04-5.22-8.92-12.29-15.99-21.21-21.21-8.92-5.23-18.62-7.85-29.04-7.85h-134.45v167.64h37.64V93.43h86.53c8.39,0,15.64,3,21.67,9.01,6.06,6.01,9.08,13.2,9.08,21.62s-3.03,15.65-9.08,21.7c-6.03,6.06-13.27,9.05-21.67,9.05h-68v27.35h42.04l48.4,51.43h43.38l-48.64-51.67c9.5-1.16,18.15-4.45,25.94-9.88"/>
  <path class="st0" d="M892.25,105.36c-3.4-7.85-7.95-14.68-13.68-20.46-5.72-5.76-12.57-10.35-20.5-13.79-7.97-3.41-16.26-5.14-24.9-5.14h-91.56c-8.64,0-16.93,1.73-24.9,5.14-7.94,3.44-14.79,8.04-20.5,13.79-5.73,5.78-10.29,12.61-13.68,20.46-3.4,7.88-5.1,16.14-5.1,24.78v39.27c0,11.63,2.87,22.34,8.6,32.22,5.73,9.85,13.52,17.64,23.37,23.37,9.85,5.73,20.59,8.58,32.2,8.58h91.56c11.61,0,22.34-2.85,32.2-8.58,9.85-5.73,17.64-13.52,23.37-23.37,5.73-9.88,8.6-20.59,8.6-32.22v-39.27c0-8.64-1.71-16.9-5.1-24.78M859.71,169.42c0,10.14-3.62,18.81-10.8,26.02-7.22,7.22-15.89,10.8-26.02,10.8h-70.98c-10.13,0-18.8-3.6-25.99-10.8-7.22-7.19-10.83-15.86-10.83-26.02v-39.27c0-10.13,3.62-18.77,10.83-25.94,7.19-7.17,15.86-10.76,25.99-10.76h70.98c10.13,0,18.8,3.6,26.02,10.76,7.19,7.17,10.8,15.82,10.8,25.94,0,0,0,39.27,0,39.27Z"/>
  <path class="st0" d="M1123.32,105.3c-3.44-7.92-8.01-14.73-13.71-20.46-5.73-5.73-12.61-10.3-20.59-13.74-8-3.41-16.3-5.14-24.94-5.14h-139.12v167.64h139.12c8.64,0,16.95-1.71,24.94-5.14,7.98-3.41,14.86-7.98,20.59-13.71,5.72-5.73,10.29-12.54,13.71-20.46,3.44-7.92,5.14-16.2,5.14-24.86v-39.27c0-8.64-1.71-16.93-5.14-24.83M1090.6,169.42c0,10.14-3.6,18.81-10.76,26.02-7.17,7.22-15.82,10.8-25.94,10.8h-91.07v-112.81h91.07c10.13,0,18.77,3.6,25.94,10.76,7.17,7.17,10.76,15.82,10.76,25.94v39.27h0Z"/>
  <path class="st0" d="M1323.92,233.6h40.1l-90.71-167.64h-50.64l-90.72,167.64h40.47l20.4-37.76h110.7l20.4,37.76h0ZM1207.61,168.49l40.55-75.05,40.57,75.05h-81.12Z"/>
</svg>